<?xml version="1.0" standalone="no"?><!DOCTYPE svg PUBLIC "-//W3C//DTD SVG 1.1//EN" "http://www.w3.org/Graphics/SVG/1.1/DTD/svg11.dtd"><svg t="1632311507649" class="icon" viewBox="0 0 1024 1024" version="1.1" xmlns="http://www.w3.org/2000/svg" p-id="2628" xmlns:xlink="http://www.w3.org/1999/xlink" width="32" height="32"><defs><style type="text/css"></style></defs><path d="M896 480a32 32 0 0 1 32 32c0 229.632-183.52 416-410.144 416-129.184 0-247.872-61.088-324.416-161.408l-42.816 42.784A32 32 0 0 1 96 786.752V640a32 32 0 0 1 32-32h146.752a32 32 0 0 1 22.624 54.624l-58.208 58.24C303.616 809.696 406.112 864 517.856 864 708.896 864 864 706.528 864 512a32 32 0 0 1 32-32zM503.936 96c129.568 0 248.384 62.112 324.384 163.68l45.056-45.056A32 32 0 0 1 928 237.248V384a32 32 0 0 1-32 32h-146.752a32 32 0 0 1-22.624-54.624l55.872-55.904C718.656 215.328 616 160 503.936 160 314.144 160 160 317.44 160 512a32 32 0 0 1-64 0C96 282.4 278.496 96 503.936 96z" p-id="2629"></path></svg>