<?xml version="1.0" standalone="no"?><!DOCTYPE svg PUBLIC "-//W3C//DTD SVG 1.1//EN" "http://www.w3.org/Graphics/SVG/1.1/DTD/svg11.dtd"><svg t="1630206175945" class="icon" viewBox="0 0 1024 1024" version="1.1" xmlns="http://www.w3.org/2000/svg" p-id="4791" xmlns:xlink="http://www.w3.org/1999/xlink" width="128" height="128"><defs><style type="text/css"></style></defs><path d="M915.6 744L743 916.6c-15.6 15.6-41 15.6-56.6 0-15.6-15.6-15.6-41 0-56.6L859 687.4c15.6-15.6 41-15.6 56.6 0 15.5 15.6 15.5 41.1 0 56.6z" fill="#bfbfbf" p-id="4792"></path><path d="M743 687.4L915.6 860c15.6 15.6 15.6 41 0 56.6-15.6 15.6-41 15.6-56.6 0L686.4 744c-15.6-15.6-15.6-41 0-56.6 15.6-15.5 41.1-15.5 56.6 0z" fill="#bfbfbf" p-id="4793"></path><path d="M581 881.6c-22.6 4.2-45.6 6.3-69 6.3-50.7 0-99.9-9.9-146.2-29.5-44.7-18.9-84.9-46-119.4-80.6-34.5-34.5-61.6-74.7-80.6-119.5-19.6-46.3-29.5-95.5-29.5-146.2s9.9-99.9 29.5-146.2c18.9-44.7 46-84.9 80.6-119.5 34.5-34.5 74.7-61.6 119.4-80.6 46.3-19.6 95.5-29.5 146.2-29.5s99.9 9.9 146.2 29.5c44.7 18.9 84.9 46 119.5 80.6 34.5 34.5 61.6 74.7 80.6 119.5 19.6 46.3 29.5 95.5 29.5 146.2 0 22-1.9 43.6-5.6 64.9H953c3.1-21.2 4.7-42.9 4.7-65 0-246.1-199.6-445.7-445.7-445.7S66.3 265.9 66.3 512 265.9 957.7 512 957.7c23.5 0 46.5-1.8 69-5.3v-70.8z" fill="#bfbfbf" p-id="4794"></path><path d="M283 543.8c8.1 8.1 19.4 13.2 31.7 13.2h394.5c24.7 0 45-20.2 45-45 0-12.4-5.1-23.6-13.2-31.7-8.1-8.1-19.4-13.2-31.7-13.2H314.8c-24.7 0-45 20.2-45 45 0 12.1 5 23.4 13.2 31.7z" fill="#bfbfbf" p-id="4795"></path></svg>