<svg viewBox="0 0 1024 1024" version="1.1" xmlns="http://www.w3.org/2000/svg" p-id="8635"
     width="128" height="128">
    <path d="M952.087273 145.92C938.356364 91.461818 863.185455 0 512 0 346.530909 0 226.443636 18.152727 154.996364 53.992727 75.869091 93.090909 69.818182 147.316364 69.818182 162.909091v309.527273a535.272727 535.272727 0 0 0 272.756363 466.618181l135.214546 75.869091a69.818182 69.818182 0 0 0 68.421818 0l135.214546-75.869091A535.272727 535.272727 0 0 0 954.181818 472.436364V162.909091a69.818182 69.818182 0 0 0-2.094545-16.989091zM884.363636 472.436364a465.454545 465.454545 0 0 1-237.149091 405.643636L512 954.181818l-135.214545-76.101818A465.454545 465.454545 0 0 1 139.636364 472.436364V162.909091s0-93.090909 372.363636-93.090909c349.090909 0 372.363636 93.090909 372.363636 93.090909z"
           fill="#ff0d78"></path>
    <path d="M699.578182 301.149091a34.676364 34.676364 0 0 0-49.338182 0L512 439.389091l-138.24-138.24a34.909091 34.909091 0 0 0-49.338182 49.338182L462.661818 488.727273l-138.24 138.24a34.676364 34.676364 0 0 0 0 49.338182 34.909091 34.909091 0 0 0 49.338182 0L512 538.065455l138.24 138.24a34.909091 34.909091 0 0 0 49.338182 0 34.676364 34.676364 0 0 0 0-49.338182L561.338182 488.727273l138.24-138.24a34.676364 34.676364 0 0 0 0-49.338182z"
          fill="#ff0d78"></path>
</svg>