<svg class="icon" viewBox="0 0 1024 1024" version="1.1" xmlns="http://www.w3.org/2000/svg"
      width="128" height="128">
    <path d="M455.224889 796.444444H256a28.444444 28.444444 0 0 1-28.444444-28.444444v-512a28.444444 28.444444 0 0 1 28.444444-28.444444h512a28.444444 28.444444 0 0 1 28.444444 28.444444V455.111111a28.444444 28.444444 0 1 0 56.888889 0V256A85.333333 85.333333 0 0 0 768 170.666667h-512A85.333333 85.333333 0 0 0 170.666667 256v512A85.333333 85.333333 0 0 0 256 853.333333h199.224889a28.444444 28.444444 0 1 0 0-56.888889z"
          fill="#f4ea2a" ></path>
    <path d="M455.111111 625.777778h341.333333v170.666666h-171.52a28.444444 28.444444 0 1 0 0 56.888889H796.444444a56.888889 56.888889 0 0 0 56.888889-56.888889v-170.666666a56.888889 56.888889 0 0 0-56.888889-56.888889H455.111111a28.444444 28.444444 0 0 0 0 56.888889z"
          fill="#f4ea2a" ></path>
    <path d="M488.448 598.926222l100.579556 100.579556a28.444444 28.444444 0 0 1-40.277334 40.220444l-120.604444-120.661333a28.330667 28.330667 0 0 1 0-40.220445l120.604444-120.661333a28.444444 28.444444 0 0 1 40.277334 40.220445l-100.579556 100.522666z"
          fill="#f4ea2a" ></path>
</svg>